<?xml version="1.0" encoding="UTF-8" standalone="no"?>
<!DOCTYPE svg PUBLIC "-//W3C//DTD SVG 1.1//EN" "http://www.w3.org/Graphics/SVG/1.1/DTD/svg11.dtd">
<svg width="100%" height="100%" viewBox="0 0 3508 4961" version="1.1" xmlns="http://www.w3.org/2000/svg" xmlns:xlink="http://www.w3.org/1999/xlink" xml:space="preserve" xmlns:serif="http://www.serif.com/" style="fill-rule:evenodd;clip-rule:evenodd;stroke-linejoin:round;stroke-miterlimit:2;">
    <g transform="matrix(3.490801,0,0,3.490801,-7378.49467,-3638.704792)">
        <path d="M2136.844,1447.937C2128.945,1438.741 2124.603,1427.02 2124.603,1414.899C2124.595,1414.898 2124.595,1414.898 2124.595,1414.898C2124.595,1362.175 2167.4,1319.37 2220.123,1319.37C2227.717,1319.37 2235.105,1320.258 2242.19,1321.935C2249.393,1323.659 2255.867,1327.617 2260.684,1333.244C2276.908,1352.121 2293.957,1370.361 2311.782,1387.917C2480.212,1553.801 2717.913,1658.556 2981.837,1662.268C2986.668,1662.336 2991.508,1662.37 2996.356,1662.37C3008.016,1662.37 3019.626,1662.173 3031.183,1661.782C3038.117,1661.54 3045.015,1662.901 3051.337,1665.76C3068.405,1673.471 3082.817,1686.037 3092.793,1701.697C3102.224,1716.503 3107.69,1734.074 3107.69,1752.911C3107.69,1771.896 3102.138,1789.596 3092.569,1804.474C3085.375,1815.66 3075.911,1825.252 3064.829,1832.596C3052.938,1840.509 3038.887,1844.542 3024.609,1844.139C3015.225,1843.892 3005.807,1843.762 2996.356,1843.762C2991.812,1843.762 2987.274,1843.792 2982.745,1843.852C2716.647,1847.36 2477.145,1953.577 2308.326,2121.625C2296.489,2133.409 2284.998,2145.496 2273.871,2157.874C2263.33,2169.642 2248.974,2177.312 2233.333,2179.533C2229.014,2180.118 2224.604,2180.427 2220.123,2180.427C2167.4,2180.427 2124.595,2137.622 2124.595,2084.898C2124.595,2082.039 2124.72,2079.21 2124.967,2076.414C2125.245,2073.344 2126.457,2070.433 2128.439,2068.072C2150.838,2041.432 2174.535,2015.92 2199.424,1991.622C2306.58,1887.013 2435.825,1804.932 2579.469,1753.068C2431.848,1699.766 2299.434,1614.548 2190.574,1505.762C2171.961,1487.162 2154.037,1467.873 2136.844,1447.937Z" style="fill:url(#_Linear1);"/>
    </g>
    <g transform="matrix(3.490801,0,0,3.490801,-7378.49467,-3638.704792)">
        <path d="M2964.412,1902.08C2980.159,1900.916 2996.064,1900.324 3012.107,1900.324C3027.004,1900.324 3041.784,1900.835 3056.428,1901.84C3058.733,1902 3060.962,1902.726 3062.92,1903.954C3089.774,1920.876 3107.636,1950.795 3107.636,1984.853C3107.636,2018.908 3089.777,2048.826 3062.921,2065.742C3060.004,2067.58 3056.605,2068.507 3053.158,2068.405C3048.315,2068.278 3043.454,2068.208 3038.577,2068.208C3016.623,2068.208 2994.996,2069.625 2973.785,2072.373C2796.674,2095.315 2648.495,2211.02 2579.645,2369.096C2571.827,2387.047 2565.031,2405.544 2559.333,2424.513C2558.577,2427.041 2557.278,2429.373 2555.526,2431.345C2538.017,2451.021 2512.508,2463.427 2484.123,2463.427C2441.204,2463.427 2404.858,2435.062 2392.824,2396.072C2391.484,2391.736 2391.357,2387.114 2392.459,2382.711C2399.93,2352.993 2409.511,2324.106 2421.011,2296.209C2510.987,2077.942 2718.425,1920.263 2964.412,1902.08Z" style="fill:url(#_Linear2);"/>
    </g>
    <g transform="matrix(3.490801,0,0,3.490801,-7378.49467,-3638.704792)">
        <path d="M2391.839,1125.08C2390.809,1120.897 2390.871,1116.518 2392.02,1112.365C2403.225,1072.026 2440.238,1042.37 2484.123,1042.37C2510.6,1042.37 2534.575,1053.164 2551.884,1070.588C2554.727,1073.437 2556.8,1076.961 2557.911,1080.83C2563.882,1101.453 2571.143,1121.531 2579.604,1140.969C2648.327,1298.859 2796.171,1414.501 2972.946,1437.706C2994.426,1440.526 3016.333,1441.98 3038.577,1441.98C3044.807,1441.98 3051.009,1441.866 3057.184,1441.64C3058.332,1441.597 3059.469,1441.883 3060.461,1442.463C3088.68,1459.074 3107.636,1489.767 3107.636,1524.853C3107.636,1558.139 3090.574,1587.472 3064.727,1604.576C3061.183,1606.93 3057.084,1608.313 3052.839,1608.587C3039.371,1609.45 3025.789,1609.881 3012.107,1609.881C2996.406,1609.881 2980.836,1609.313 2965.417,1608.198C2716.384,1590.18 2506.717,1429.189 2418.193,1207.002C2407.641,1180.518 2398.81,1153.165 2391.839,1125.08Z" style="fill:url(#_Linear3);"/>
    </g>
    <defs>
        <linearGradient id="_Linear1" x1="0" y1="0" x2="1" y2="0" gradientUnits="userSpaceOnUse" gradientTransform="matrix(983.095002,0,0,861.057737,2124.594581,1749.898422)"><stop offset="0" style="stop-color:rgb(60,71,255);stop-opacity:1"/><stop offset="0.24" style="stop-color:rgb(88,94,253);stop-opacity:1"/><stop offset="0.56" style="stop-color:rgb(149,145,249);stop-opacity:1"/><stop offset="1" style="stop-color:white;stop-opacity:1"/></linearGradient>
        <linearGradient id="_Linear2" x1="0" y1="0" x2="1" y2="0" gradientUnits="userSpaceOnUse" gradientTransform="matrix(716.726741,0,0,563.103361,2390.908903,2181.87561)"><stop offset="0" style="stop-color:rgb(60,71,255);stop-opacity:1"/><stop offset="0.24" style="stop-color:rgb(88,94,253);stop-opacity:1"/><stop offset="0.56" style="stop-color:rgb(149,145,249);stop-opacity:1"/><stop offset="1" style="stop-color:white;stop-opacity:1"/></linearGradient>
        <linearGradient id="_Linear3" x1="0" y1="0" x2="1" y2="0" gradientUnits="userSpaceOnUse" gradientTransform="matrix(717.216701,0,0,567.511297,2390.418943,1326.125202)"><stop offset="0" style="stop-color:rgb(60,71,255);stop-opacity:1"/><stop offset="0.24" style="stop-color:rgb(88,94,253);stop-opacity:1"/><stop offset="0.56" style="stop-color:rgb(149,145,249);stop-opacity:1"/><stop offset="1" style="stop-color:white;stop-opacity:1"/></linearGradient>
    </defs>
</svg>
